<svg width="186" height="38" viewBox="0 0 186 38" fill="none" xmlns="http://www.w3.org/2000/svg">
<path d="M55.0146 28.0368C58.1285 28.0368 60.4927 26.1035 60.4927 23.3334C60.4927 20.823 58.8781 19.5533 56.312 18.8608L54.9569 18.4568C53.7172 18.1394 53.5442 17.6489 53.5442 17.2161C53.5442 16.5524 54.2938 16.235 54.9858 16.235C55.9372 16.235 56.7734 16.6678 57.4365 17.5046L60.0314 15.3982C58.9069 13.7823 57.2635 12.9743 55.0434 12.9743C51.9584 12.9743 49.7095 14.6768 49.623 17.3315C49.5365 19.5533 50.9493 21.2558 53.6018 21.9483L54.6686 22.208C56.2544 22.6409 56.6004 22.9871 56.6004 23.5931C56.6004 24.3145 55.8219 24.6319 55.0146 24.6319C53.6307 24.6319 52.4485 24.0259 51.7854 22.9583L49.0752 25.2667C50.315 27.1423 52.4774 28.0368 55.0146 28.0368Z" fill="white"/>
<path d="M69.381 27.8925C70.5055 27.8925 71.2263 27.7771 71.8894 27.5751V24.0836C71.4281 24.2568 70.8803 24.3433 70.2748 24.3433C68.5449 24.3433 67.8241 23.6508 67.8241 21.8906V16.7544H71.3193L72.1325 15.111L73.0353 13.2917H67.8241V9.28083H63.8741V13.2917H60.9621V16.7544H63.8741V22.6697C63.8741 26.2189 66.3248 27.8925 69.381 27.8925Z" fill="white"/>
<path d="M80.4166 28.0368C84.5973 28.0368 87.9995 24.7473 87.9995 20.5056C87.9995 16.2927 84.5973 12.9743 80.4166 12.9743C76.236 12.9743 72.8338 16.2927 72.8338 20.5056C72.8338 24.7473 76.236 28.0368 80.4166 28.0368ZM80.4166 24.3433C78.3407 24.3433 76.8126 22.7274 76.8126 20.5056C76.8126 18.2837 78.3407 16.6678 80.4166 16.6678C82.4637 16.6678 83.9918 18.2837 83.9918 20.5056C83.9918 22.7274 82.4637 24.3433 80.4166 24.3433Z" fill="white"/>
<path d="M90.0079 27.7194H93.9579V20.823C93.9579 18.428 95.1977 16.9852 97.0717 16.9852C97.7349 16.9852 98.2538 17.1006 98.8593 17.3026V13.2917C98.3692 13.1474 97.9655 13.1186 97.5331 13.1186C95.9185 13.1186 94.448 14.1862 93.9579 15.6002V13.2917H90.0079V27.7194Z" fill="white"/>
<path d="M106.861 33.7502L115.914 13.2917H111.561L107.726 22.6409L103.863 13.2917H99.5378L105.593 26.9115L102.565 33.7502H106.861Z" fill="white"/>
<path d="M124.804 27.8925C125.928 27.8925 126.649 27.7771 127.312 27.5751V24.0836C126.851 24.2568 126.303 24.3433 125.697 24.3433C123.968 24.3433 123.247 23.6508 123.247 21.8906V16.7544H126.756L127.83 15.023L128.904 13.2917H123.247V9.28083H119.297V13.2917H117.359L116.627 15.023L115.895 16.7544H119.297V22.6697C119.297 26.2189 121.747 27.8925 124.804 27.8925Z" fill="white"/>
<path d="M136.446 28.0368C139.474 28.0368 141.78 26.7672 143.136 24.805L140.195 22.612C139.532 23.6219 138.292 24.4299 136.475 24.4299C134.572 24.4299 132.871 23.3622 132.641 21.4289H143.424C143.51 20.823 143.482 20.419 143.482 20.0727C143.482 15.3693 140.166 12.9743 136.389 12.9743C132.006 12.9743 128.806 16.235 128.806 20.5056C128.806 25.0647 132.151 28.0368 136.446 28.0368ZM132.785 18.7454C133.16 16.9852 134.803 16.235 136.273 16.235C137.744 16.235 139.186 17.0141 139.532 18.7454H132.785Z" fill="white"/>
<path d="M145.813 27.7194H149.763V6.07788H145.813V27.7194Z" fill="white"/>
<path d="M152.554 27.7194H156.504V6.07788H152.554V27.7194Z" fill="white"/>
<path d="M166.424 28.0368C169.451 28.0368 171.758 26.7672 173.113 24.805L170.172 22.612C169.509 23.6219 168.269 24.4299 166.452 24.4299C164.55 24.4299 162.848 23.3622 162.618 21.4289H173.401C173.487 20.823 173.459 20.419 173.459 20.0727C173.459 15.3693 170.143 12.9743 166.366 12.9743C161.983 12.9743 158.783 16.235 158.783 20.5056C158.783 25.0647 162.128 28.0368 166.424 28.0368ZM162.762 18.7454C163.137 16.9852 164.78 16.235 166.251 16.235C167.721 16.235 169.163 17.0141 169.509 18.7454H162.762Z" fill="white"/>
<path d="M175.607 27.7194H179.557V20.823C179.557 18.428 180.797 16.9852 182.671 16.9852C183.334 16.9852 183.853 17.1006 184.458 17.3026V13.2917C183.968 13.1474 183.565 13.1186 183.132 13.1186C181.517 13.1186 180.047 14.1862 179.557 15.6002V13.2917H175.607V27.7194Z" fill="white"/>
<path d="M6.88391 12.5083L17.4836 15.8555C18.2129 16.0858 18.9953 16.0858 19.7246 15.8555L30.3243 12.5083C29.7136 6.57439 24.6993 1.94617 18.6041 1.94617C12.5089 1.94617 7.49461 6.57439 6.88391 12.5083Z" fill="#F3C3AF"/>
<path d="M20.4763 19.3374C19.258 19.7232 17.9503 19.7232 16.732 19.3374L3.22942 15.0616C1.63026 14.5552 0 15.749 0 17.4264V21.7394C0 22.5489 0.394933 23.3074 1.05805 23.7716L17.1817 35.0581C18.0358 35.656 19.1726 35.656 20.0267 35.0581L36.1503 23.7716C36.8134 23.3074 37.2083 22.5489 37.2083 21.7394V17.4264C37.2083 15.749 35.5781 14.5552 33.9789 15.0616L20.4763 19.3374Z" fill="#1C62EB"/>
</svg>
