<svg width="18" height="20" viewBox="0 0 18 20" fill="none" xmlns="http://www.w3.org/2000/svg">
<path d="M16.75 15H2V4.25C2 4.125 1.875 4 1.75 4H1.25C1.09375 4 1 4.125 1 4.25V15.5C1 15.7812 1.21875 16 1.5 16H16.75C16.875 16 17 15.9062 17 15.75V15.25C17 15.125 16.875 15 16.75 15ZM4.0625 10.25C3.96875 10.3438 3.96875 10.5 4.0625 10.5938L4.40625 10.9375C4.5 11.0312 4.65625 11.0312 4.75 10.9375L7.03125 8.6875L9.6875 11.3438C9.875 11.5312 10.1875 11.5312 10.375 11.3438L13.3125 8.40625L14.6875 9.78125C14.8438 9.9375 15.0312 10 15.2188 10C15.625 10 16 9.71875 16 9.25V5.53125C16 5.25 15.75 5 15.4688 5H11.75C11.0625 5 10.7188 5.84375 11.2188 6.3125L12.5938 7.71875L10.0312 10.2812L7.40625 7.625C7.1875 7.4375 6.875 7.4375 6.6875 7.625L4.0625 10.25ZM12.3125 6H15V8.6875L12.3125 6Z" fill="#76A0F0"/>
</svg>
