<svg width="20" height="18" viewBox="0 0 20 18" fill="none" xmlns="http://www.w3.org/2000/svg">
<path d="M14.125 6C14.3125 6 14.5 5.84375 14.5 5.625V5.375C14.5 5.1875 14.3125 5 14.125 5H8.875C8.65625 5 8.5 5.1875 8.5 5.375V5.625C8.5 5.84375 8.65625 6 8.875 6H14.125ZM14.5 7.625V7.375C14.5 7.1875 14.3125 7 14.125 7H8.875C8.65625 7 8.5 7.1875 8.5 7.375V7.625C8.5 7.84375 8.65625 8 8.875 8H14.125C14.3125 8 14.5 7.84375 14.5 7.625ZM16.5 16C16.375 15.375 16.4062 14.4688 16.5312 13.9688C16.7812 13.8438 17 13.5625 17 13.25V1.75C17 1.34375 16.6562 1 16.25 1H5.5C4.09375 1 3 2.125 3 3.5V14.5C3 15.9062 4.09375 17 5.5 17H16.625C16.8125 17 17 16.8438 17 16.625V16.375C17 16.1875 16.8125 16 16.625 16H16.5ZM7 13V2H16V13H7ZM4 13.5V3.5C4 2.6875 4.65625 2 5.5 2H6V13H5.5C4.9375 13 4.40625 13.1875 4 13.5ZM15.625 16H5.5C3.5 16 3.5 14 5.5 14H15.625C15.5312 14.5938 15.5312 15.375 15.625 16Z" fill="#76A0F0"/>
</svg>
