<svg width="20" height="18" viewBox="0 0 20 18" fill="none" xmlns="http://www.w3.org/2000/svg">
<path d="M15.5 3H14V1.375C14 1.1875 13.8125 1 13.625 1H13.375C13.1562 1 13 1.1875 13 1.375V3H7V1.375C7 1.1875 6.8125 1 6.625 1H6.375C6.15625 1 6 1.1875 6 1.375V3H4.5C3.65625 3 3 3.6875 3 4.5V15.5C3 16.3438 3.65625 17 4.5 17H15.5C16.3125 17 17 16.3438 17 15.5V4.5C17 3.6875 16.3125 3 15.5 3ZM4.5 4H15.5C15.75 4 16 4.25 16 4.5V6H4V4.5C4 4.25 4.21875 4 4.5 4ZM15.5 16H4.5C4.21875 16 4 15.7812 4 15.5V7H16V15.5C16 15.7812 15.75 16 15.5 16ZM7.625 11C7.8125 11 8 10.8438 8 10.625V9.375C8 9.1875 7.8125 9 7.625 9H6.375C6.15625 9 6 9.1875 6 9.375V10.625C6 10.8438 6.15625 11 6.375 11H7.625ZM10.625 11C10.8125 11 11 10.8438 11 10.625V9.375C11 9.1875 10.8125 9 10.625 9H9.375C9.15625 9 9 9.1875 9 9.375V10.625C9 10.8438 9.15625 11 9.375 11H10.625ZM13.625 11C13.8125 11 14 10.8438 14 10.625V9.375C14 9.1875 13.8125 9 13.625 9H12.375C12.1562 9 12 9.1875 12 9.375V10.625C12 10.8438 12.1562 11 12.375 11H13.625ZM10.625 14C10.8125 14 11 13.8438 11 13.625V12.375C11 12.1875 10.8125 12 10.625 12H9.375C9.15625 12 9 12.1875 9 12.375V13.625C9 13.8438 9.15625 14 9.375 14H10.625ZM7.625 14C7.8125 14 8 13.8438 8 13.625V12.375C8 12.1875 7.8125 12 7.625 12H6.375C6.15625 12 6 12.1875 6 12.375V13.625C6 13.8438 6.15625 14 6.375 14H7.625ZM13.625 14C13.8125 14 14 13.8438 14 13.625V12.375C14 12.1875 13.8125 12 13.625 12H12.375C12.1562 12 12 12.1875 12 12.375V13.625C12 13.8438 12.1562 14 12.375 14H13.625Z" fill="#76A0F0"/>
</svg>
