<svg width="20" height="18" viewBox="0 0 20 18" fill="none" xmlns="http://www.w3.org/2000/svg">
<path d="M8.125 17C8.21875 17.0312 8.34375 16.9687 8.34375 16.875L12.75 1.4687C12.7812 1.37495 12.7188 1.2812 12.625 1.24995L11.8438 1.0312C11.75 0.99995 11.6562 1.06245 11.625 1.1562L7.21875 16.5625C7.1875 16.6562 7.25 16.75 7.34375 16.7812L8.125 17ZM5.75 13.0937L6.34375 12.4375C6.40625 12.375 6.40625 12.2812 6.3125 12.2187L2.53125 8.99995L6.3125 5.81245C6.40625 5.74995 6.40625 5.6562 6.34375 5.5937L5.75 4.93745C5.71875 4.87495 5.59375 4.87495 5.53125 4.93745L1.03125 8.9062C0.96875 8.9687 0.96875 9.06245 1.03125 9.12495L5.53125 13.0937C5.59375 13.1562 5.71875 13.1562 5.75 13.0937ZM14.4375 13.0937L18.9375 9.12495C19 9.06245 19 8.9687 18.9375 8.9062L14.4375 4.93745C14.375 4.87495 14.2812 4.87495 14.2188 4.93745L13.625 5.5937C13.5625 5.6562 13.5938 5.74995 13.6562 5.81245L17.4375 8.99995L13.6562 12.2187C13.5938 12.2812 13.5625 12.375 13.625 12.4375L14.2188 13.0937C14.25 13.1562 14.375 13.1562 14.4375 13.0937Z" fill="#76A0F0"/>
</svg>
