<svg width="20" height="18" viewBox="0 0 20 18" fill="none" xmlns="http://www.w3.org/2000/svg">
<path d="M12.25 11H15.75C15.875 11 16 10.9062 16 10.75V10.25C16 10.125 15.875 10 15.75 10H12.25C12.0938 10 12 10.125 12 10.25V10.75C12 10.9062 12.0938 11 12.25 11ZM12.25 9H15.75C15.875 9 16 8.90625 16 8.75V8.25C16 8.125 15.875 8 15.75 8H12.25C12.0938 8 12 8.125 12 8.25V8.75C12 8.90625 12.0938 9 12.25 9ZM12.25 13H15.75C15.875 13 16 12.9062 16 12.75V12.25C16 12.125 15.875 12 15.75 12H12.25C12.0938 12 12 12.125 12 12.25V12.75C12 12.9062 12.0938 13 12.25 13ZM7 12C8.375 12 9.5 10.9062 9.5 9.5C9.5 8.125 8.375 7 7 7C5.59375 7 4.5 8.125 4.5 9.5C4.5 10.9062 5.59375 12 7 12ZM7 8C7.8125 8 8.5 8.6875 8.5 9.5C8.5 10.3438 7.8125 11 7 11C6.15625 11 5.5 10.3438 5.5 9.5C5.5 8.6875 6.15625 8 7 8ZM17 2H3C1.875 2 1 2.90625 1 4V14C1 15.125 1.875 16 3 16H17C18.0938 16 19 15.125 19 14V4C19 2.90625 18.0938 2 17 2ZM9.5 15H4.5V14.5312C4.5 14.3125 4.5625 14.125 4.6875 13.9375C4.84375 13.6562 5.15625 13.5312 5.53125 13.5312C5.90625 13.5312 6.1875 13.75 7 13.75C7.8125 13.75 8.0625 13.5312 8.4375 13.5312C8.8125 13.5312 9.125 13.6875 9.3125 13.9375C9.4375 14.125 9.5 14.3125 9.5 14.5312V15ZM18 14C18 14.5625 17.5312 15 17 15H10.5V14.5312C10.5 14.0938 10.3438 13.7188 10.125 13.375C9.75 12.8125 9.09375 12.5 8.4375 12.5C7.84375 12.5 7.6875 12.7188 7 12.7188C6.28125 12.7188 6.125 12.5 5.53125 12.5C4.875 12.5 4.21875 12.8125 3.84375 13.375C3.625 13.7188 3.5 14.0938 3.5 14.5312V15H3C2.4375 15 2 14.5625 2 14V6H18V14ZM18 5H2V4C2 3.46875 2.4375 3 3 3H17C17.5312 3 18 3.46875 18 4V5Z" fill="#76A0F0"/>
</svg>
