<svg width="20" height="18" viewBox="0 0 20 18" fill="none" xmlns="http://www.w3.org/2000/svg">
<path d="M9.25 3C8.8125 3 8.5 3.34375 8.5 3.75C8.5 4.1875 8.8125 4.5 9.25 4.5C9.65625 4.5 10 4.1875 10 3.75C10 3.34375 9.65625 3 9.25 3ZM16 12H10.5V7.96875C12.1875 7.71875 13.5 6.28125 13.5 4.5C13.5 2.59375 11.9062 1 10 1C8.0625 1 6.5 2.59375 6.5 4.5C6.5 6.28125 7.78125 7.71875 9.5 7.96875V12H7V11.5C7 11.25 6.75 11 6.5 11H5.5C5.21875 11 5 11.25 5 11.5V12H4C3.4375 12 3 12.4688 3 13V16C3 16.5625 3.4375 17 4 17H16C16.5312 17 17 16.5625 17 16V13C17 12.4688 16.5312 12 16 12ZM7.5 4.5C7.5 3.125 8.59375 2 10 2C11.375 2 12.5 3.125 12.5 4.5C12.5 5.90625 11.375 7 10 7C8.59375 7 7.5 5.90625 7.5 4.5ZM16 16H4V13H16V16Z" fill="#76A0F0"/>
</svg>
