<svg width="20" height="18" viewBox="0 0 20 18" fill="none" xmlns="http://www.w3.org/2000/svg">
<path d="M18 6.78125V2C18 1.75 17.7812 1 17 1C16.75 1 16.5312 1.09375 16.375 1.25L13.6875 3.375C12.375 4.4375 10.6875 5 9 5H3C1.875 5 1 5.90625 1 7V10C1 11.125 1.875 12 3 12L2.96875 13C2.96875 14.25 3.25 15.4375 3.78125 16.4688C3.9375 16.8125 4.28125 17 4.65625 17H7.96875C8.78125 17 9.28125 16.0938 8.78125 15.4375C8.28125 14.75 7.96875 13.9375 7.96875 13C7.96875 12.6562 8.03125 12.3438 8.09375 12H9C10.6875 12 12.375 12.5938 13.6875 13.6562L16.375 15.7812C16.5 15.9062 16.7812 16 16.9688 16C17.75 16 17.9688 15.3125 17.9688 15V10.25C18.5938 9.90625 18.9688 9.25 18.9688 8.5C19 7.78125 18.5938 7.125 18 6.78125ZM7.96875 16H4.65625C4.21875 15.0625 3.96875 14.0625 3.96875 13.0312V12.0312L4 12H7.09375C7.03125 12.3438 6.96875 12.6875 6.96875 13C6.96875 14.125 7.3125 15.1562 7.96875 16ZM3 11C2.4375 11 2 10.5625 2 10V7C2 6.46875 2.4375 6 3 6H9V11H3ZM17 14.9688C17 15 16.9688 15 16.9688 15L14.3125 12.875C13.0625 11.875 11.5625 11.2812 10 11.0938V5.9375C11.5625 5.75 13.0625 5.125 14.3125 4.15625L16.9688 2.03125C16.9688 2.03125 16.9688 2.03125 17 2.03125V14.9688Z" fill="#76A0F0"/>
</svg>
