<svg width="20" height="18" viewBox="0 0 20 18" fill="none" xmlns="http://www.w3.org/2000/svg">
<path d="M10 11.625C9.5 11.625 9.125 12.0312 9.125 12.5C9.125 13 9.5 13.375 10 13.375C10.4688 13.375 10.875 13 10.875 12.5C10.875 12.0312 10.4688 11.625 10 11.625ZM10.2188 10.875C10.4375 10.875 10.5938 10.7188 10.5938 10.5C10.5938 9.15625 13.0312 9.25 13.0312 7.15625C13.0312 5.5625 11.5938 4.625 9.96875 4.625C8.5625 4.625 7.78125 5.1875 7.125 6.03125C7 6.21875 7.03125 6.4375 7.21875 6.5625L7.625 6.875C7.78125 6.96875 8 6.9375 8.125 6.78125C8.59375 6.1875 9.0625 5.875 9.96875 5.875C11.2188 5.875 11.7812 6.53125 11.7812 7.15625C11.7812 8.5 9.34375 8.3125 9.34375 10.5C9.34375 10.7188 9.53125 10.875 9.71875 10.875H10.2188ZM10 2.25C13.6875 2.25 16.75 5.28125 16.75 9C16.75 12.75 13.7188 15.75 10 15.75C6.25 15.75 3.25 12.75 3.25 9C3.25 5.28125 6.25 2.25 10 2.25ZM10 1.25C5.71875 1.25 2.25 4.75 2.25 9C2.25 13.2812 5.71875 16.75 10 16.75C14.25 16.75 17.75 13.2812 17.75 9C17.75 4.75 14.25 1.25 10 1.25Z" fill="#76A0F0"/>
</svg>
