<svg width="20" height="18" viewBox="0 0 20 18" fill="none" xmlns="http://www.w3.org/2000/svg">
<path d="M17 8C18.375 8 19.5 6.90625 19.5 5.5C19.5 4.125 18.375 3 17 3C15.5938 3 14.5 4.125 14.5 5.5C14.5 6.90625 15.5938 8 17 8ZM17 4C17.8125 4 18.5 4.6875 18.5 5.5C18.5 6.34375 17.8125 7 17 7C16.1562 7 15.5 6.34375 15.5 5.5C15.5 4.6875 16.1562 4 17 4ZM10 9C11.9062 9 13.5 7.4375 13.5 5.5C13.5 3.59375 11.9062 2 10 2C8.0625 2 6.5 3.59375 6.5 5.5C6.5 7.4375 8.0625 9 10 9ZM10 3C11.375 3 12.5 4.125 12.5 5.5C12.5 6.90625 11.375 8 10 8C8.59375 8 7.5 6.90625 7.5 5.5C7.5 4.125 8.59375 3 10 3ZM17.625 9H16.375C15.875 9 15.4375 9.15625 15.0625 9.40625C15.375 9.625 15.625 9.84375 15.875 10.125C16.0312 10.0625 16.1875 10 16.375 10H17.625C18.375 10 19 10.6875 19 11.5C19 11.7812 19.2188 12 19.5 12C19.75 12 20 11.7812 20 11.5C20 10.125 18.9062 9 17.625 9ZM3 8C4.375 8 5.5 6.90625 5.5 5.5C5.5 4.125 4.375 3 3 3C1.59375 3 0.5 4.125 0.5 5.5C0.5 6.90625 1.59375 8 3 8ZM3 4C3.8125 4 4.5 4.6875 4.5 5.5C4.5 6.34375 3.8125 7 3 7C2.15625 7 1.5 6.34375 1.5 5.5C1.5 4.6875 2.15625 4 3 4ZM12.5 9.625C11.4375 9.625 11.1875 10 10 10C8.78125 10 8.53125 9.625 7.46875 9.625C6.34375 9.625 5.25 10.1562 4.59375 11.0938C4.21875 11.6875 4 12.375 4 13.125V14.5C4 15.3438 4.65625 16 5.5 16H14.5C15.3125 16 16 15.3438 16 14.5V13.125C16 12.375 15.75 11.6875 15.375 11.0938C14.7188 10.1562 13.625 9.625 12.5 9.625ZM15 14.5C15 14.7812 14.75 15 14.5 15H5.5C5.21875 15 5 14.7812 5 14.5V13.125C5 12.5938 5.125 12.0938 5.4375 11.6562C5.84375 11.0312 6.625 10.625 7.46875 10.625C8.34375 10.625 8.65625 11 10 11C11.3438 11 11.625 10.625 12.5 10.625C13.3438 10.625 14.125 11.0312 14.5312 11.6562C14.8438 12.0938 14.9688 12.5938 14.9688 13.125V14.5H15ZM4.90625 9.40625C4.53125 9.15625 4.09375 9 3.625 9H2.375C1.0625 9 0 10.125 0 11.5C0 11.7812 0.21875 12 0.5 12C0.75 12 1 11.7812 1 11.5C1 10.6875 1.59375 10 2.375 10H3.625C3.78125 10 3.9375 10.0625 4.09375 10.125C4.34375 9.84375 4.59375 9.625 4.90625 9.40625Z" fill="#76A0F0"/>
</svg>
